<?xml version="1.0" encoding="utf-8"?>
<!-- Generator: Adobe Illustrator 19.2.1, SVG Export Plug-In . SVG Version: 6.00 Build 0)  -->
<svg version="1.1" id="layer" xmlns="http://www.w3.org/2000/svg" xmlns:xlink="http://www.w3.org/1999/xlink" x="0px" y="0px"
	 viewBox="0 0 652 652" style="enable-background:new 0 0 652 652;" xml:space="preserve">
<style type="text/css">
	.st0{fill:#E43D30;}
	.st1{fill:#A6A8AB;}
</style>
<g id="Layer_2">
	<g id="art">
		<path class="st0" d="M209,230.4c0-23.2-17.3-42.8-40.4-45.6c-7.7,29.9-7.7,61.3,0,91.2C191.7,273.2,209,253.7,209,230.4z"/>
		<path class="st0" d="M235.7,216c-8,0-14.5,6.4-14.5,14.4c0,8,6.4,14.5,14.4,14.5c8,0,14.5-6.4,14.5-14.4c0,0,0,0,0-0.1
			C250.2,222.5,243.7,216,235.7,216z"/>
		<path class="st0" d="M434.9,230.4c0,23.2,17.3,42.8,40.4,45.6c7.7-29.9,7.7-61.3,0-91.2C452.2,187.7,434.9,207.2,434.9,230.4z"/>
		<path class="st0" d="M408.1,216c-8-0.1-14.5,6.3-14.6,14.3c-0.1,8,6.3,14.5,14.3,14.6c8,0.1,14.5-6.3,14.6-14.3c0-0.1,0-0.1,0-0.2
			C422.4,222.5,416,216.1,408.1,216z"/>
		<path class="st0" d="M321.6,343.7c-23.2,0-42.8,17.3-45.6,40.4c29.9,7.7,61.3,7.7,91.2,0C364.4,361,344.8,343.7,321.6,343.7z"/>
		<path class="st0" d="M321.6,302.6c-8,0-14.5,6.4-14.5,14.4c0,8,6.4,14.5,14.4,14.5c8,0,14.5-6.4,14.5-14.4c0,0,0,0,0-0.1
			C336,309.1,329.6,302.6,321.6,302.6z"/>
		<path class="st0" d="M321.6,117.8c23.2,0,42.8-17.3,45.6-40.4c-29.9-7.7-61.3-7.7-91.2,0C278.8,100.5,298.4,117.8,321.6,117.8z"/>
		<path class="st0" d="M321.6,130.1c-8,0-14.4,6.5-14.4,14.4c0,8,6.5,14.4,14.4,14.4s14.4-6.5,14.4-14.4l0,0
			C336,136.6,329.6,130.1,321.6,130.1z"/>
		<path class="st0" d="M401.6,310.4c-16.4,16.4-18,42.4-3.7,60.7c26.6-15.7,48.8-37.9,64.5-64.5C444.1,292.5,418,294.1,401.6,310.4z
			"/>
		<path class="st0" d="M372.5,281.3c-5.6,5.6-5.6,14.8,0,20.4c5.6,5.6,14.8,5.6,20.4,0c5.6-5.6,5.6-14.8,0-20.4c0,0,0,0,0,0
			C387.3,275.7,378.1,275.7,372.5,281.3z"/>
		<path class="st0" d="M241.9,150.7c16.4-16.4,18-42.4,3.8-60.7c-26.6,15.7-48.8,37.9-64.5,64.5
			C199.4,168.7,225.5,167.1,241.9,150.7z"/>
		<path class="st0" d="M250.6,159.4c-5.6,5.6-5.6,14.8,0,20.4c5.6,5.6,14.8,5.6,20.4,0c5.6-5.6,5.6-14.8,0-20.4c0,0,0,0,0,0
			C265.4,153.8,256.2,153.8,250.6,159.4z"/>
		<path class="st0" d="M401.5,150.5c16.4,16.4,42.5,18,60.7,3.8c-15.7-26.6-37.9-48.8-64.5-64.5
			C383.5,108.1,385.1,134.1,401.5,150.5z"/>
		<path class="st0" d="M392.8,179.7c5.6-5.6,5.7-14.8,0-20.4c-5.6-5.6-14.8-5.7-20.4,0c-5.6,5.6-5.7,14.8,0,20.4c0,0,0,0,0,0
			C378,185.3,387.2,185.3,392.8,179.7z"/>
		<path class="st0" d="M241.8,310.3c-16.4-16.4-42.4-18-60.7-3.8c15.7,26.6,37.8,48.8,64.4,64.5
			C259.7,352.7,258.2,326.7,241.8,310.3z"/>
		<path class="st0" d="M250.5,281.1c-5.6,5.6-5.6,14.8,0,20.4s14.8,5.6,20.4,0c5.6-5.6,5.6-14.8,0-20.4c0,0,0,0,0,0
			C265.3,275.5,256.2,275.5,250.5,281.1z"/>
		<path class="st1" d="M64,571.6c-23,0-45.6-14-45.6-52.5S41,466.8,64,466.8c14.1,0,24,4,33.7,14.3l-14.1,13.7
			c-6.4-7.1-11.5-9.7-19.6-9.7c-7.4-0.2-14.5,3.1-19,9c-4.4,5.7-6,12.9-6,24.8c0,11.9,1.6,19.4,6,25c4.5,5.9,11.6,9.3,19,9.1
			c8.1,0,13.2-2.6,19.6-9.7l14,13.6C89.2,566.8,76.8,572.1,64,571.6z"/>
		<path class="st1" d="M177,570.4v-9.3c-7.5,7.5-14.6,10.6-27.3,10.6s-21.1-3-27.5-9.3c-5.4-6-8.3-13.9-8.1-22
			c0-17.2,11.9-29.5,35.3-29.5h27v-7.3c0-12.9-6.4-19.2-22.4-19.2c-11.3,0-16.8,2.6-22.4,9.9l-13.5-12.7
			c9.7-11.3,19.8-14.7,36.7-14.7c28.1,0,42.3,11.9,42.3,35.1v68.5L177,570.4z M176.6,525.2h-24c-12.1,0-18.5,5.4-18.5,14.7
			s5.9,14.5,18.8,14.5c7.9,0,13.7-0.6,19.2-5.9c3-3,4.4-7.9,4.4-15.1L176.6,525.2z"/>
		<path class="st1" d="M293.4,570.4V508c0-15.8-9.1-22.8-20.6-22.8c-11.5,0-21.1,7.1-21.1,22.8v62.4H231V468h20.2v10.4
			c7.1-7.5,17-11.7,27.3-11.5c9.3-0.3,18.4,3,25.2,9.3c7.9,7.7,10.3,17.4,10.3,28.9v65.4L293.4,570.4z"/>
		<path class="st1" d="M387.2,570.4h-16.8L332.9,468h21.8l24.2,72.1l24-72.1h21.8L387.2,570.4z"/>
		<path class="st1" d="M499,570.4v-9.3c-7.5,7.5-14.5,10.6-27.3,10.6s-21.1-3-27.5-9.3c-5.4-6-8.3-13.9-8.1-22
			c0-17.2,11.9-29.5,35.3-29.5h27.1v-7.3c0-12.9-6.5-19.2-22.4-19.2c-11.3,0-16.7,2.6-22.4,9.9l-13.5-12.7
			c9.7-11.3,19.8-14.7,36.8-14.7c28.1,0,42.3,11.9,42.3,35.1v68.5L499,570.4z M498.6,525.2h-24c-12.1,0-18.4,5.4-18.4,14.7
			s5.8,14.5,18.8,14.5c7.9,0,13.7-0.6,19.2-5.9c3-3,4.4-7.9,4.4-15.1V525.2z"/>
		<path class="st1" d="M582.9,571.6c-16.8,0-30.9-2.8-43-14.7l13.5-13.5c8.3,8.5,19.4,10.7,29.5,10.7c12.5,0,22.4-4.4,22.4-14.1
			c0-6.9-3.8-11.3-13.7-12.1l-16.3-1.4c-19.2-1.6-30.3-10.3-30.3-28.3c0-20,17.1-31.3,38.6-31.3c15.3,0,28.5,3.2,38,11.5l-12.9,13.2
			c-6.5-5.5-15.6-7.5-25.2-7.5c-12.3,0-18.5,5.4-18.5,13.2c0,6,3.2,10.6,14.1,11.7l16.2,1.4c19.2,1.6,30.5,10.7,30.5,28.9
			C625.5,560.5,607.3,571.6,582.9,571.6z"/>
	</g>
</g>
</svg>
