<svg width="259" height="257" xmlns="http://www.w3.org/2000/svg" xmlns:xlink="http://www.w3.org/1999/xlink" overflow="hidden"><defs><clipPath id="clip0"><rect x="97" y="204" width="259" height="257"/></clipPath><clipPath id="clip1"><rect x="98" y="204" width="257" height="257"/></clipPath><clipPath id="clip2"><rect x="98" y="204" width="257" height="257"/></clipPath><clipPath id="clip3"><rect x="98" y="204" width="257" height="257"/></clipPath></defs><g clip-path="url(#clip0)" transform="translate(-97 -204)"><g clip-path="url(#clip1)"><g clip-path="url(#clip2)"><g clip-path="url(#clip3)"><path d="M203.745 323.398C203.745 336.705 192.958 347.492 179.651 347.492 166.344 347.492 155.557 336.705 155.557 323.398 155.557 310.091 166.344 299.304 179.651 299.304 192.958 299.304 203.745 310.091 203.745 323.398Z" stroke="#1CADE4" stroke-width="2.67708" stroke-linecap="butt" stroke-linejoin="miter" stroke-miterlimit="4" stroke-opacity="1" fill="#4472C4" fill-rule="nonzero" fill-opacity="1"/><path d="M292.089 439.583 292.089 415.49C292.187 411.675 290.381 408.062 287.27 405.852 280.335 400.424 272.293 396.586 263.711 394.608 257.277 392.674 250.617 391.594 243.901 391.396 237.17 391.417 230.484 392.501 224.091 394.608 215.631 396.924 207.653 400.732 200.532 405.852 197.512 408.138 195.73 411.702 195.714 415.49L195.714 439.583Z" stroke="#1CADE4" stroke-width="2.67708" stroke-linecap="butt" stroke-linejoin="miter" stroke-miterlimit="4" stroke-opacity="1" fill="#4472C4" fill-rule="nonzero" fill-opacity="1"/><path d="M267.995 360.877C267.995 374.184 257.208 384.971 243.901 384.971 230.594 384.971 219.807 374.184 219.807 360.877 219.807 347.57 230.594 336.783 243.901 336.783 257.208 336.783 267.995 347.57 267.995 360.877Z" stroke="#1CADE4" stroke-width="2.67708" stroke-linecap="butt" stroke-linejoin="miter" stroke-miterlimit="4" stroke-opacity="1" fill="#4472C4" fill-rule="nonzero" fill-opacity="1"/><path d="M194.107 397.285C201.624 391.921 209.934 387.766 218.736 384.971 212.648 378.627 209.203 370.204 209.099 361.413L209.099 360.342C205.971 359.031 202.75 357.957 199.461 357.129 193.027 355.195 186.367 354.115 179.651 353.917 172.92 353.937 166.234 355.021 159.841 357.129 151.467 359.671 143.525 363.462 136.282 368.373 133.172 370.583 131.365 374.196 131.464 378.01L131.464 402.104 189.289 402.104C190.616 400.241 192.245 398.613 194.107 397.285Z" stroke="#1CADE4" stroke-width="2.67708" stroke-linecap="butt" stroke-linejoin="miter" stroke-miterlimit="4" stroke-opacity="1" fill="#4472C4" fill-rule="nonzero" fill-opacity="1"/><path d="M315.781 225.417 214.667 225.417C211.573 225.446 209.084 227.971 209.099 231.065L209.099 300C209.04 303.105 211.508 305.669 214.612 305.728 214.631 305.729 214.649 305.729 214.667 305.729L230.73 305.729 230.73 328.324 252.923 305.729 315.781 305.729C318.879 305.7 321.376 303.18 321.376 300.081L321.376 231.065C321.376 227.966 318.879 225.446 315.781 225.417ZM264.756 295.69C261.473 295.69 258.813 293.029 258.813 289.746 258.813 286.464 261.474 283.804 264.757 283.804 268.007 283.804 270.655 286.416 270.699 289.667 270.758 292.934 268.157 295.63 264.89 295.689 264.845 295.69 264.801 295.69 264.756 295.69ZM268.584 271.195 268.584 279.628 260.954 279.628 260.954 263.86 264.756 263.86C271.395 263.86 275.678 259.978 275.678 254.008 275.783 248.095 271.074 243.216 265.161 243.112 265.026 243.109 264.891 243.11 264.756 243.112 259.25 242.601 254.371 246.649 253.86 252.155 253.803 252.771 253.803 253.392 253.86 254.008L253.86 254.677 246.23 254.677 246.23 254.008C245.652 244.341 253.02 236.036 262.687 235.457 263.376 235.416 264.066 235.416 264.756 235.456 274.883 235.337 283.189 243.45 283.308 253.577 283.309 253.721 283.309 253.864 283.308 254.008 283.568 262.677 277.19 270.122 268.584 271.195Z" stroke="#1CADE4" stroke-width="2.67708" stroke-linecap="butt" stroke-linejoin="miter" stroke-miterlimit="4" stroke-opacity="1" fill="#4472C4" fill-rule="nonzero" fill-opacity="1"/></g></g></g></g></svg>