<?xml version="1.0" encoding="utf-8"?>
<!-- Generator: Adobe Illustrator 26.0.0, SVG Export Plug-In . SVG Version: 6.00 Build 0)  -->
<svg version="1.1" id="Layer_1" xmlns="http://www.w3.org/2000/svg" xmlns:xlink="http://www.w3.org/1999/xlink" x="0px" y="0px"
	 viewBox="0 0 158.85 160.08" style="enable-background:new 0 0 158.85 160.08;" xml:space="preserve">
<style type="text/css">
	.st0{fill:none;stroke:#000000;stroke-width:0.488;stroke-linecap:round;stroke-linejoin:round;stroke-miterlimit:10;}
	.st1{fill:#FF0000;}
	.st2{fill:none;stroke:#1E8FFF;stroke-width:0.976;stroke-linecap:round;stroke-linejoin:round;stroke-miterlimit:10;}
	
		.st3{fill:none;stroke:#1E8FFF;stroke-width:0.976;stroke-linecap:round;stroke-linejoin:round;stroke-miterlimit:10;stroke-dasharray:0,3.9051;}
	.st4{fill:#1E8FFF;}
	.st5{fill:#FFFFFF;}
</style>
<g>
	<path d="M34.03,31.63c0-0.99-0.8-1.79-1.79-1.79c-0.99,0-1.79,0.8-1.79,1.79c0,0.99,0.8,1.79,1.79,1.79
		C33.23,33.42,34.03,32.62,34.03,31.63"/>
	<path d="M45.54,56.76c0-0.99-0.8-1.79-1.79-1.79c-0.99,0-1.79,0.8-1.79,1.79s0.8,1.79,1.79,1.79
		C44.74,58.55,45.54,57.75,45.54,56.76"/>
	<path d="M51.82,59.44c0-0.99-0.8-1.79-1.79-1.79c-0.99,0-1.79,0.8-1.79,1.79c0,0.99,0.8,1.79,1.79,1.79
		C51.02,61.23,51.82,60.43,51.82,59.44"/>
	<path d="M53.96,63.21c0-0.99-0.8-1.79-1.79-1.79c-0.99,0-1.79,0.8-1.79,1.79c0,0.99,0.8,1.79,1.79,1.79
		C53.16,65,53.96,64.2,53.96,63.21"/>
	<path d="M60.91,60.27c0-0.99-0.8-1.79-1.79-1.79c-0.99,0-1.79,0.8-1.79,1.79c0,0.99,0.8,1.79,1.79,1.79
		C60.11,62.06,60.91,61.26,60.91,60.27"/>
	<path d="M69.07,72.41c0-0.99-0.8-1.79-1.79-1.79c-0.99,0-1.79,0.8-1.79,1.79c0,0.99,0.8,1.79,1.79,1.79
		C68.27,74.2,69.07,73.4,69.07,72.41"/>
	<path d="M79.78,80.84c0-0.99-0.8-1.79-1.79-1.79c-0.99,0-1.79,0.8-1.79,1.79c0,0.99,0.8,1.79,1.79,1.79
		C78.98,82.63,79.78,81.83,79.78,80.84"/>
	<path d="M83.86,76.53c0-0.99-0.8-1.79-1.79-1.79c-0.99,0-1.79,0.8-1.79,1.79c0,0.99,0.8,1.79,1.79,1.79
		C83.06,78.32,83.86,77.52,83.86,76.53"/>
	<path d="M87.63,90.67c0-0.99-0.8-1.79-1.79-1.79c-0.99,0-1.79,0.8-1.79,1.79c0,0.99,0.8,1.79,1.79,1.79
		C86.83,92.47,87.63,91.66,87.63,90.67"/>
	<path d="M97.17,80.15c0-0.99-0.8-1.79-1.79-1.79c-0.99,0-1.79,0.8-1.79,1.79c0,0.99,0.8,1.79,1.79,1.79
		C96.37,81.94,97.17,81.14,97.17,80.15"/>
	<path d="M100.48,83.22c0-0.99-0.8-1.79-1.79-1.79c-0.99,0-1.79,0.8-1.79,1.79c0,0.99,0.8,1.79,1.79,1.79
		C99.68,85.01,100.48,84.21,100.48,83.22"/>
	<path d="M111.92,93.99c0-0.99-0.8-1.79-1.79-1.79c-0.99,0-1.79,0.8-1.79,1.79s0.8,1.79,1.79,1.79
		C111.12,95.78,111.92,94.98,111.92,93.99"/>
	<path d="M114.52,83.55c0-0.99-0.8-1.79-1.79-1.79c-0.99,0-1.79,0.8-1.79,1.79s0.8,1.79,1.79,1.79
		C113.71,85.34,114.52,84.53,114.52,83.55"/>
	<path d="M125.01,93.38c0-0.99-0.8-1.79-1.79-1.79s-1.79,0.8-1.79,1.79c0,0.99,0.8,1.79,1.79,1.79S125.01,94.37,125.01,93.38"/>
	<path d="M127.31,94.87c0-0.99-0.8-1.79-1.79-1.79s-1.79,0.81-1.79,1.79c0,0.99,0.8,1.79,1.79,1.79S127.31,95.85,127.31,94.87"/>
	<path d="M137.22,85.94c0-0.99-0.8-1.79-1.79-1.79c-0.99,0-1.79,0.8-1.79,1.79c0,0.99,0.8,1.79,1.79,1.79
		C136.42,87.73,137.22,86.92,137.22,85.94"/>
	<path d="M143.09,91.43c0-0.99-0.8-1.79-1.79-1.79c-0.99,0-1.79,0.8-1.79,1.79c0,0.99,0.8,1.79,1.79,1.79
		C142.29,93.22,143.09,92.42,143.09,91.43"/>
	<path d="M152.81,90.1c0-0.99-0.8-1.79-1.79-1.79c-0.99,0-1.79,0.8-1.79,1.79c0,0.99,0.8,1.79,1.79,1.79
		C152,91.88,152.81,91.08,152.81,90.1"/>
	<path d="M155.53,92.5c0-0.99-0.8-1.79-1.79-1.79c-0.99,0-1.79,0.8-1.79,1.79c0,0.99,0.8,1.79,1.79,1.79
		C154.72,94.29,155.53,93.49,155.53,92.5"/>
	<path d="M36.35,56.37c0-0.99-0.8-1.79-1.79-1.79c-0.99,0-1.79,0.8-1.79,1.79c0,0.99,0.8,1.79,1.79,1.79
		C35.55,58.16,36.35,57.36,36.35,56.37"/>
	<path d="M44.01,71.55c0-0.99-0.8-1.79-1.79-1.79c-0.99,0-1.79,0.8-1.79,1.79c0,0.99,0.8,1.79,1.79,1.79
		C43.21,73.34,44.01,72.53,44.01,71.55"/>
	<path d="M50.58,69.33c0-0.99-0.8-1.79-1.79-1.79c-0.99,0-1.79,0.8-1.79,1.79c0,0.99,0.8,1.79,1.79,1.79
		C49.78,71.12,50.58,70.32,50.58,69.33"/>
	<path d="M54.12,67.45c0-0.99-0.8-1.79-1.79-1.79c-0.99,0-1.79,0.8-1.79,1.79s0.8,1.79,1.79,1.79
		C53.31,69.24,54.12,68.43,54.12,67.45"/>
	<path d="M63.99,79.56c0-0.99-0.8-1.79-1.79-1.79c-0.99,0-1.79,0.8-1.79,1.79c0,0.99,0.8,1.79,1.79,1.79
		C63.19,81.35,63.99,80.55,63.99,79.56"/>
	<path d="M72.89,94.74c0-0.99-0.8-1.79-1.79-1.79c-0.99,0-1.79,0.8-1.79,1.79c0,0.99,0.8,1.79,1.79,1.79
		C72.08,96.53,72.89,95.72,72.89,94.74"/>
	<path d="M73.55,88.91c0-0.99-0.8-1.79-1.79-1.79c-0.99,0-1.79,0.8-1.79,1.79c0,0.99,0.8,1.79,1.79,1.79
		C72.75,90.7,73.55,89.9,73.55,88.91"/>
	<path d="M86.12,100.15c0-0.99-0.8-1.79-1.79-1.79c-0.99,0-1.79,0.8-1.79,1.79c0,0.99,0.8,1.79,1.79,1.79
		C85.32,101.94,86.12,101.14,86.12,100.15"/>
	<path d="M93.03,108.71c0-0.99-0.8-1.79-1.79-1.79c-0.99,0-1.79,0.8-1.79,1.79c0,0.99,0.8,1.79,1.79,1.79
		C92.23,110.5,93.03,109.7,93.03,108.71"/>
	<path d="M95.29,127.2c0-0.99-0.8-1.79-1.79-1.79c-0.99,0-1.79,0.8-1.79,1.79c0,0.99,0.8,1.79,1.79,1.79
		C94.49,128.99,95.29,128.19,95.29,127.2"/>
	<path d="M101.63,110.62c0-0.99-0.8-1.79-1.79-1.79c-0.99,0-1.79,0.8-1.79,1.79c0,0.99,0.8,1.79,1.79,1.79
		C100.83,112.41,101.63,111.61,101.63,110.62"/>
	<path d="M112.42,116.18c0-0.99-0.8-1.79-1.79-1.79c-0.99,0-1.79,0.8-1.79,1.79c0,0.99,0.8,1.79,1.79,1.79
		C111.62,117.97,112.42,117.17,112.42,116.18"/>
	<path d="M113.41,104.04c0-0.99-0.8-1.79-1.79-1.79c-0.99,0-1.79,0.8-1.79,1.79c0,0.99,0.8,1.79,1.79,1.79
		C112.61,105.83,113.41,105.03,113.41,104.04"/>
	<path d="M120.56,104.57c0-0.99-0.8-1.79-1.79-1.79c-0.99,0-1.79,0.8-1.79,1.79c0,0.99,0.8,1.79,1.79,1.79
		C119.75,106.36,120.56,105.56,120.56,104.57"/>
	<path d="M127.19,104.5c0-0.99-0.8-1.79-1.79-1.79c-0.99,0-1.79,0.8-1.79,1.79c0,0.99,0.8,1.79,1.79,1.79
		C126.38,106.29,127.19,105.49,127.19,104.5"/>
	<path d="M137.78,103.89c0-0.99-0.8-1.79-1.79-1.79c-0.99,0-1.79,0.8-1.79,1.79c0,0.99,0.8,1.79,1.79,1.79
		C136.97,105.68,137.78,104.88,137.78,103.89"/>
	<path d="M140.52,104.94c0-0.99-0.8-1.79-1.79-1.79c-0.99,0-1.79,0.8-1.79,1.79c0,0.99,0.8,1.79,1.79,1.79
		C139.71,106.73,140.52,105.93,140.52,104.94"/>
	<path d="M151.72,102.01c0-0.99-0.8-1.79-1.79-1.79c-0.99,0-1.79,0.8-1.79,1.79c0,0.99,0.8,1.79,1.79,1.79
		C150.92,103.8,151.72,103,151.72,102.01"/>
	<path d="M153.79,111.85c0-0.99-0.8-1.79-1.79-1.79c-0.99,0-1.79,0.8-1.79,1.79c0,0.99,0.8,1.79,1.79,1.79
		C152.99,113.64,153.79,112.83,153.79,111.85"/>
	<path d="M67.34,51.33c0-0.99-0.8-1.79-1.79-1.79c-0.99,0-1.79,0.8-1.79,1.79c0,0.99,0.8,1.79,1.79,1.79
		C66.54,53.12,67.34,52.32,67.34,51.33"/>
	<path d="M85.44,57.6c0-0.99-0.8-1.79-1.79-1.79c-0.99,0-1.79,0.8-1.79,1.79c0,0.99,0.8,1.79,1.79,1.79
		C84.64,59.4,85.44,58.59,85.44,57.6"/>
	<path d="M98.86,64.65c0-0.99-0.8-1.79-1.79-1.79c-0.99,0-1.79,0.8-1.79,1.79c0,0.99,0.8,1.79,1.79,1.79
		C98.05,66.45,98.86,65.64,98.86,64.65"/>
	<path d="M114.93,68.19c0-0.99-0.8-1.79-1.79-1.79c-0.99,0-1.79,0.8-1.79,1.79c0,0.99,0.8,1.79,1.79,1.79
		C114.12,69.98,114.93,69.18,114.93,68.19"/>
	<path d="M119.31,65.1c0-0.99-0.8-1.79-1.79-1.79c-0.99,0-1.79,0.8-1.79,1.79c0,0.99,0.8,1.79,1.79,1.79
		C118.51,66.89,119.31,66.09,119.31,65.1"/>
	<line class="st0" x1="31.62" y1="132.58" x2="132.46" y2="132.58"/>
	<line class="st0" x1="31.62" y1="132.58" x2="31.62" y2="137.27"/>
	<line class="st0" x1="82.04" y1="132.58" x2="82.04" y2="137.27"/>
	<line class="st0" x1="132.46" y1="132.58" x2="132.46" y2="137.27"/>
	<polyline points="30.08,144.86 30.32,145.36 31.6,144.77 31.6,149.45 32.28,149.45 32.28,144.01 31.85,144.01 30.08,144.86 	"/>
	<path d="M86.38,144.44c0.65,0,1.19,0.72,1.19,2.32c0,1.73-0.5,2.32-1.19,2.32c-0.68,0-1.18-0.56-1.18-2.32
		C85.19,145.15,85.73,144.44,86.38,144.44L86.38,144.44 M84.49,146.75c0,2.02,0.71,2.81,1.89,2.81c1.23,0,1.89-0.85,1.89-2.81
		c0-1.93-0.68-2.8-1.89-2.8C85.18,143.95,84.49,144.81,84.49,146.75L84.49,146.75z M82.04,144.44c0.65,0,1.19,0.72,1.19,2.32
		c0,1.73-0.5,2.32-1.19,2.32c-0.68,0-1.19-0.56-1.19-2.32C80.85,145.15,81.39,144.44,82.04,144.44L82.04,144.44z M80.15,146.75
		c0,2.02,0.71,2.81,1.89,2.81c1.23,0,1.89-0.85,1.89-2.81c0-1.93-0.68-2.8-1.89-2.8C80.84,143.95,80.15,144.81,80.15,146.75
		L80.15,146.75z M76.15,144.86l0.24,0.5l1.28-0.59v4.68h0.69v-5.45h-0.43L76.15,144.86z"/>
	<path d="M141.14,144.44c0.65,0,1.19,0.72,1.19,2.32c0,1.73-0.5,2.32-1.19,2.32c-0.68,0-1.18-0.56-1.18-2.32
		C139.96,145.15,140.5,144.44,141.14,144.44L141.14,144.44 M139.26,146.75c0,2.02,0.71,2.81,1.89,2.81c1.23,0,1.89-0.85,1.89-2.81
		c0-1.93-0.68-2.8-1.89-2.8C139.94,143.95,139.26,144.81,139.26,146.75L139.26,146.75z M136.8,144.44c0.65,0,1.19,0.72,1.19,2.32
		c0,1.73-0.5,2.32-1.19,2.32c-0.68,0-1.19-0.56-1.19-2.32C135.62,145.15,136.16,144.44,136.8,144.44L136.8,144.44z M134.92,146.75
		c0,2.02,0.71,2.81,1.89,2.81c1.23,0,1.89-0.85,1.89-2.81c0-1.93-0.68-2.8-1.89-2.8C135.6,143.95,134.92,144.81,134.92,146.75
		L134.92,146.75z M132.46,144.44c0.65,0,1.19,0.72,1.19,2.32c0,1.73-0.5,2.32-1.19,2.32c-0.68,0-1.18-0.56-1.18-2.32
		C131.28,145.15,131.81,144.44,132.46,144.44L132.46,144.44z M130.57,146.75c0,2.02,0.71,2.81,1.89,2.81c1.23,0,1.89-0.85,1.89-2.81
		c0-1.93-0.68-2.8-1.89-2.8C131.26,143.95,130.57,144.81,130.57,146.75L130.57,146.75z M128.12,144.44c0.65,0,1.19,0.72,1.19,2.32
		c0,1.73-0.5,2.32-1.19,2.32c-0.68,0-1.18-0.56-1.18-2.32C126.93,145.15,127.47,144.44,128.12,144.44L128.12,144.44z M126.23,146.75
		c0,2.02,0.71,2.81,1.89,2.81c1.23,0,1.89-0.85,1.89-2.81c0-1.93-0.68-2.8-1.89-2.8C126.92,143.95,126.23,144.81,126.23,146.75
		L126.23,146.75z M122.23,144.86l0.24,0.5l1.28-0.59v4.68h0.69v-5.45H124L122.23,144.86z"/>
	<rect x="27.39" y="1.37" class="st0" width="131.21" height="131.21"/>
	<path d="M139.46,156.57c-0.1-0.23-0.26-0.4-0.47-0.53c-0.28-0.16-0.61-0.23-1.01-0.23c-0.51,0-0.86,0.09-1.14,0.26
		c-0.28,0.17-0.45,0.45-0.45,0.8c0,0.25,0.09,0.48,0.27,0.66c0.2,0.22,0.47,0.33,1.05,0.48c0.57,0.14,0.83,0.23,1,0.4
		c0.14,0.13,0.21,0.31,0.21,0.48c0,0.25-0.08,0.44-0.22,0.57c-0.19,0.16-0.46,0.23-0.73,0.23c-0.5,0-0.86-0.2-1.01-0.49l-0.65,0.08
		c0.15,0.27,0.36,0.48,0.63,0.6c0.29,0.14,0.64,0.2,1.04,0.2c0.52,0,0.94-0.14,1.22-0.37c0.29-0.24,0.42-0.52,0.42-0.9
		c0-0.31-0.11-0.55-0.27-0.72c-0.21-0.22-0.51-0.35-1.11-0.51c-0.62-0.17-0.79-0.23-0.96-0.37c-0.14-0.11-0.22-0.27-0.22-0.42
		c0-0.21,0.09-0.35,0.22-0.45c0.17-0.11,0.43-0.15,0.68-0.15c0.49,0,0.78,0.22,0.89,0.46L139.46,156.57 M134.34,155.9h-0.41v0.46
		h0.41v2.42c0,0.94,0.36,1.29,0.97,1.29c0.28,0,0.5-0.09,0.66-0.17l-0.11-0.46c-0.09,0.07-0.23,0.15-0.4,0.15
		c-0.28,0-0.43-0.33-0.43-1.02v-2.22h0.71v-0.46h-0.71v-0.89h-0.69V155.9z M133.36,159.99v-2.83c0-0.48-0.1-0.8-0.28-1.01
		c-0.19-0.23-0.5-0.33-0.89-0.33c-0.26,0-0.52,0.07-0.76,0.18c-0.24,0.12-0.48,0.28-0.71,0.46h-0.03l0.01-0.55h-0.69v4.08h0.69V157
		c0.19-0.2,0.46-0.41,0.67-0.51c0.2-0.1,0.4-0.16,0.6-0.16c0.28,0,0.44,0.1,0.55,0.23c0.14,0.18,0.16,0.47,0.16,0.79v2.64H133.36z
		 M125.63,155.9v2.83c0,0.48,0.1,0.79,0.28,1.01c0.19,0.23,0.52,0.33,0.9,0.33c0.31,0,0.6-0.08,0.86-0.22
		c0.22-0.12,0.41-0.27,0.61-0.44h0.03l-0.01,0.56h0.69v-4.08h-0.69v3c-0.2,0.22-0.43,0.39-0.63,0.49c-0.21,0.11-0.44,0.17-0.64,0.17
		c-0.28,0-0.45-0.1-0.55-0.22c-0.14-0.18-0.16-0.47-0.16-0.8v-2.63H125.63z M122.98,159.64c-0.7,0-1.17-0.52-1.17-1.7
		c0-1.24,0.55-1.7,1.17-1.7c0.61,0,1.17,0.46,1.17,1.7C124.15,159.07,123.69,159.64,122.98,159.64L122.98,159.64z M124.85,157.95
		c0-1.53-0.77-2.14-1.87-2.14c-1.1,0-1.87,0.61-1.87,2.14c0,1.36,0.6,2.13,1.87,2.13C124.23,160.08,124.85,159.29,124.85,157.95
		L124.85,157.95z M120.52,156.83c-0.18-0.58-0.65-1.02-1.53-1.02c-1.05,0-1.8,0.66-1.8,2.13c0,1.51,0.69,2.14,1.79,2.14
		c0.86,0,1.4-0.44,1.58-1.13l-0.71-0.07c-0.15,0.47-0.4,0.77-0.88,0.77c-0.57,0-1.08-0.4-1.08-1.7c0-1.16,0.49-1.69,1.09-1.69
		c0.45,0,0.68,0.27,0.84,0.65L120.52,156.83z M112.47,159.6c-0.67,0-1.07-0.61-1.07-1.65c0-1.05,0.39-1.67,1.07-1.67
		c0.41,0,0.76,0.25,1.05,0.59v2.11C113.33,159.26,113.01,159.6,112.47,159.6L112.47,159.6z M113.54,159.58l-0.01,0.4h0.69v-5.58
		h-0.69v1.89h-0.01c-0.31-0.28-0.7-0.48-1.18-0.48c-0.92,0-1.63,0.71-1.63,2.14c0,1.28,0.54,2.13,1.65,2.13
		c0.62,0,0.96-0.32,1.16-0.5H113.54z M107.08,157.69c0.05-1.05,0.57-1.48,1.19-1.48c0.59,0,1.05,0.56,1.12,1.48H107.08z
		 M110.1,158.05c0-0.72-0.18-1.32-0.54-1.72c-0.34-0.35-0.77-0.52-1.28-0.52c-0.58,0-1.02,0.18-1.35,0.49
		c-0.36,0.36-0.55,0.92-0.55,1.61c0,0.78,0.19,1.32,0.52,1.66c0.35,0.36,0.84,0.51,1.39,0.51c0.56,0,0.95-0.15,1.24-0.35
		c0.28-0.21,0.46-0.47,0.57-0.7l-0.72-0.07c-0.23,0.48-0.58,0.72-1.09,0.72c-0.57,0-1.15-0.4-1.2-1.63H110.1z M105.81,155.9h-3.09
		v0.43h2.21l-2.33,3.3v0.35h3.34v-0.43h-2.45l2.32-3.3V155.9z M101.74,155.9h-0.69v4.08h0.69V155.9z M101.05,155.05h0.69v-0.68
		h-0.69V155.05z M99.32,159.99h0.69v-5.58h-0.69V159.99z M97.48,159.19c-0.34,0.37-0.83,0.47-1.12,0.47c-0.66,0-0.87-0.33-0.87-0.76
		c0-0.64,0.59-1.02,1.99-1.2V159.19z M98.33,159.99v-0.04c-0.14-0.12-0.16-0.26-0.16-0.62v-1.98c0-1.17-0.52-1.53-1.54-1.53
		c-1.08,0-1.5,0.54-1.64,1.09l0.71,0.07c0.07-0.39,0.34-0.77,0.91-0.77c0.65,0,0.88,0.35,0.88,0.99v0.15
		c-1.99,0.23-2.69,0.72-2.69,1.59c0,0.69,0.42,1.14,1.46,1.14c0.46,0,0.97-0.17,1.25-0.46h0.01c0.01,0.14,0.04,0.26,0.12,0.37H98.33
		z M93.96,159.99v-2.88c0-0.46-0.09-0.77-0.27-0.99c-0.18-0.2-0.43-0.31-0.79-0.31c-0.26,0-0.48,0.06-0.72,0.17
		c-0.22,0.11-0.44,0.28-0.68,0.49h-0.02c-0.05-0.15-0.15-0.34-0.29-0.45c-0.16-0.13-0.38-0.21-0.68-0.21
		c-0.22,0-0.46,0.05-0.67,0.16c-0.21,0.1-0.43,0.27-0.67,0.48h-0.02l0.01-0.55h-0.69v4.08h0.69v-2.98c0.2-0.22,0.4-0.39,0.58-0.5
		c0.2-0.12,0.38-0.18,0.54-0.18c0.18,0,0.33,0.07,0.43,0.18c0.12,0.16,0.17,0.41,0.17,0.74v2.73h0.69V157
		c0.21-0.22,0.4-0.38,0.59-0.49c0.19-0.11,0.37-0.17,0.53-0.17c0.22,0,0.36,0.08,0.46,0.2c0.12,0.17,0.15,0.47,0.15,0.76v2.7H93.96z
		 M86.24,156.33l0.01-0.42h-0.69v4.08h0.69v-3.01c0.14-0.19,0.29-0.35,0.43-0.46c0.17-0.12,0.31-0.18,0.44-0.18
		c0.1,0,0.19,0.02,0.27,0.06c0.06,0.03,0.12,0.07,0.17,0.12l0.08-0.55c-0.07-0.05-0.13-0.08-0.2-0.1c-0.09-0.03-0.19-0.05-0.3-0.05
		c-0.19,0-0.34,0.06-0.49,0.15c-0.15,0.1-0.28,0.23-0.4,0.37H86.24z M82.98,159.64c-0.7,0-1.17-0.52-1.17-1.7
		c0-1.24,0.55-1.7,1.17-1.7c0.61,0,1.17,0.46,1.17,1.7C84.15,159.07,83.68,159.64,82.98,159.64L82.98,159.64z M84.85,157.95
		c0-1.53-0.77-2.14-1.87-2.14c-1.1,0-1.87,0.61-1.87,2.14c0,1.36,0.6,2.13,1.87,2.13C84.23,160.08,84.85,159.29,84.85,157.95
		L84.85,157.95z M80.33,159.99v-2.83c0-0.48-0.1-0.8-0.28-1.01c-0.19-0.23-0.5-0.33-0.89-0.33c-0.26,0-0.52,0.07-0.76,0.18
		c-0.25,0.12-0.48,0.28-0.72,0.46h-0.03l0.01-0.55h-0.69v4.08h0.69V157c0.19-0.2,0.46-0.41,0.67-0.51c0.2-0.1,0.4-0.16,0.6-0.16
		c0.28,0,0.44,0.1,0.55,0.23c0.14,0.18,0.16,0.47,0.16,0.79v2.64H80.33z M74.49,154.48c-0.09-0.05-0.18-0.08-0.28-0.11
		c-0.14-0.03-0.28-0.05-0.44-0.05c-0.35,0-0.61,0.09-0.79,0.24c-0.22,0.21-0.31,0.57-0.31,1.07v0.27h-0.41v0.45h0.41v3.63h0.69
		v-3.63h0.75v-0.45h-0.75v-0.28c0-0.38,0.06-0.61,0.18-0.72c0.1-0.08,0.22-0.12,0.36-0.12c0.11,0,0.22,0.02,0.31,0.05
		c0.08,0.03,0.14,0.07,0.18,0.1L74.49,154.48z M69.95,159.64c-0.7,0-1.17-0.52-1.17-1.7c0-1.24,0.56-1.7,1.17-1.7
		c0.61,0,1.17,0.46,1.17,1.7C71.12,159.07,70.66,159.64,69.95,159.64L69.95,159.64z M71.82,157.95c0-1.53-0.78-2.14-1.87-2.14
		c-1.1,0-1.87,0.61-1.87,2.14c0,1.36,0.6,2.13,1.87,2.13C71.2,160.08,71.82,159.29,71.82,157.95L71.82,157.95z M65.13,159.99v-2.83
		c0-0.48-0.1-0.8-0.28-1.01c-0.19-0.23-0.51-0.33-0.89-0.33c-0.26,0-0.52,0.07-0.76,0.18c-0.24,0.12-0.48,0.28-0.71,0.46h-0.03
		l0.01-0.55h-0.69v4.08h0.69V157c0.19-0.2,0.46-0.41,0.67-0.51c0.2-0.1,0.41-0.16,0.6-0.16c0.28,0,0.44,0.1,0.55,0.23
		c0.14,0.18,0.16,0.47,0.16,0.79v2.64H65.13z M59.95,159.19c-0.35,0.37-0.83,0.47-1.12,0.47c-0.66,0-0.87-0.33-0.87-0.76
		c0-0.64,0.59-1.02,1.99-1.2V159.19z M60.8,159.99v-0.04c-0.14-0.12-0.16-0.26-0.16-0.62v-1.98c0-1.17-0.52-1.53-1.54-1.53
		c-1.08,0-1.5,0.54-1.64,1.09l0.71,0.07c0.07-0.39,0.34-0.77,0.91-0.77c0.65,0,0.88,0.35,0.88,0.99v0.15
		c-1.99,0.23-2.69,0.72-2.69,1.59c0,0.69,0.42,1.14,1.46,1.14c0.46,0,0.97-0.17,1.25-0.46h0.01c0.01,0.14,0.04,0.26,0.12,0.37H60.8z
		 M53.61,157.69c0.05-1.05,0.57-1.48,1.19-1.48c0.59,0,1.05,0.56,1.12,1.48H53.61z M56.63,158.05c0-0.72-0.18-1.32-0.54-1.72
		c-0.34-0.35-0.77-0.52-1.28-0.52c-0.58,0-1.02,0.18-1.35,0.49c-0.36,0.36-0.55,0.92-0.55,1.61c0,0.78,0.18,1.32,0.52,1.66
		c0.35,0.36,0.84,0.51,1.38,0.51c0.56,0,0.95-0.15,1.24-0.35c0.28-0.21,0.46-0.47,0.57-0.7l-0.72-0.07
		c-0.23,0.48-0.58,0.72-1.09,0.72c-0.57,0-1.15-0.4-1.2-1.63H56.63z M52.09,159.99v-2.88c0-0.46-0.09-0.77-0.27-0.99
		c-0.18-0.2-0.43-0.31-0.79-0.31c-0.26,0-0.48,0.06-0.71,0.17c-0.23,0.11-0.44,0.28-0.68,0.49h-0.02c-0.05-0.15-0.15-0.34-0.29-0.45
		c-0.16-0.13-0.38-0.21-0.68-0.21c-0.22,0-0.46,0.05-0.67,0.16c-0.22,0.1-0.44,0.27-0.68,0.48h-0.02l0.01-0.55h-0.69v4.08h0.69
		v-2.98c0.2-0.22,0.4-0.39,0.58-0.5c0.2-0.12,0.38-0.18,0.54-0.18c0.18,0,0.32,0.07,0.43,0.18c0.12,0.16,0.17,0.41,0.17,0.74v2.73
		h0.69V157c0.21-0.22,0.4-0.38,0.59-0.49c0.19-0.11,0.37-0.17,0.52-0.17c0.22,0,0.36,0.08,0.46,0.2c0.12,0.17,0.15,0.47,0.15,0.76
		v2.7H52.09z"/>
	<path d="M3.31,36.65c-1.05-0.05-1.48-0.57-1.48-1.19c0-0.59,0.56-1.05,1.48-1.12V36.65 M3.68,33.63c-0.72,0-1.32,0.18-1.72,0.55
		c-0.35,0.34-0.52,0.77-0.52,1.28c0,0.58,0.18,1.03,0.49,1.35c0.36,0.36,0.92,0.55,1.61,0.55c0.78,0,1.32-0.18,1.66-0.52
		c0.36-0.35,0.5-0.84,0.5-1.38c0-0.56-0.15-0.95-0.35-1.24c-0.21-0.28-0.47-0.46-0.7-0.57l-0.07,0.72c0.48,0.23,0.72,0.58,0.72,1.09
		c0,0.58-0.39,1.15-1.63,1.2V33.63z M1.53,39.35v0.41h0.46v-0.41h2.42c0.94,0,1.29-0.36,1.29-0.97c0-0.28-0.09-0.5-0.17-0.66
		l-0.46,0.11c0.07,0.09,0.15,0.23,0.15,0.4c0,0.28-0.33,0.43-1.02,0.43H1.99v-0.72H1.53v0.72H0.64v0.69H1.53z M4.81,41.16
		c0.37,0.34,0.48,0.83,0.48,1.12c0,0.66-0.33,0.87-0.76,0.87c-0.64,0-1.01-0.59-1.19-1.99H4.81z M5.61,40.32H5.57
		c-0.13,0.14-0.26,0.16-0.62,0.16H2.96c-1.17,0-1.53,0.52-1.53,1.54c0,1.08,0.54,1.5,1.09,1.64l0.07-0.71
		c-0.39-0.07-0.77-0.34-0.77-0.91c0-0.65,0.35-0.88,0.99-0.88h0.15c0.23,1.99,0.72,2.69,1.59,2.69c0.69,0,1.14-0.42,1.14-1.46
		c0-0.46-0.17-0.97-0.46-1.25v-0.01c0.14-0.01,0.26-0.04,0.37-0.12V40.32z M5.61,44.68H2.73c-0.46,0-0.77,0.09-0.99,0.27
		c-0.2,0.18-0.31,0.43-0.31,0.79c0,0.26,0.06,0.48,0.17,0.71c0.11,0.23,0.28,0.45,0.5,0.68v0.02c-0.15,0.05-0.34,0.15-0.45,0.29
		c-0.13,0.16-0.21,0.38-0.21,0.68c0,0.22,0.06,0.46,0.16,0.67c0.1,0.21,0.26,0.43,0.48,0.67v0.02l-0.55-0.01v0.69h4.08v-0.69H2.63
		c-0.22-0.2-0.39-0.4-0.5-0.58c-0.12-0.2-0.18-0.38-0.18-0.54c0-0.18,0.07-0.33,0.18-0.43c0.16-0.12,0.41-0.17,0.74-0.17h2.73v-0.69
		H2.62c-0.22-0.21-0.38-0.4-0.49-0.59c-0.11-0.19-0.17-0.37-0.17-0.53c0-0.22,0.07-0.36,0.2-0.46c0.18-0.12,0.47-0.15,0.76-0.15h2.7
		V44.68z M5.61,51.22H1.53v0.69h4.08V51.22z M0.68,51.22H0v0.69h0.68V51.22z M1.53,54.11v0.41h0.46v-0.41h2.42
		c0.94,0,1.29-0.36,1.29-0.97c0-0.28-0.09-0.5-0.17-0.66l-0.46,0.11c0.07,0.09,0.15,0.22,0.15,0.4c0,0.28-0.33,0.43-1.02,0.43H1.99
		V52.7H1.53v0.72H0.64v0.69H1.53z M2.2,55.06c-0.23,0.09-0.4,0.26-0.53,0.47c-0.16,0.28-0.23,0.61-0.23,1.01
		c0,0.51,0.09,0.86,0.26,1.14c0.17,0.28,0.45,0.45,0.8,0.45c0.25,0,0.48-0.09,0.66-0.27c0.21-0.21,0.33-0.48,0.48-1.05
		c0.14-0.57,0.23-0.83,0.4-1c0.13-0.14,0.31-0.21,0.48-0.21c0.25,0,0.44,0.08,0.56,0.22c0.16,0.19,0.23,0.46,0.23,0.73
		c0,0.5-0.2,0.86-0.49,1.01l0.08,0.65c0.27-0.15,0.48-0.36,0.6-0.63c0.13-0.29,0.19-0.64,0.19-1.04c0-0.53-0.14-0.94-0.37-1.22
		c-0.24-0.29-0.52-0.42-0.9-0.42c-0.31,0-0.55,0.11-0.72,0.27c-0.22,0.21-0.35,0.51-0.51,1.11c-0.16,0.62-0.23,0.79-0.37,0.96
		c-0.11,0.14-0.26,0.22-0.42,0.22c-0.2,0-0.35-0.09-0.45-0.22c-0.11-0.17-0.15-0.43-0.15-0.68c0-0.49,0.22-0.78,0.46-0.89L2.2,55.06
		z M3.31,61.82c-1.05-0.05-1.48-0.57-1.48-1.19c0-0.59,0.56-1.05,1.48-1.12V61.82z M3.68,58.8c-0.72,0-1.32,0.18-1.72,0.54
		c-0.35,0.34-0.52,0.77-0.52,1.28c0,0.58,0.18,1.03,0.49,1.35c0.36,0.36,0.92,0.55,1.61,0.55c0.78,0,1.32-0.18,1.66-0.52
		c0.36-0.35,0.5-0.84,0.5-1.39c0-0.56-0.15-0.95-0.35-1.24c-0.21-0.28-0.47-0.47-0.7-0.57l-0.07,0.72c0.48,0.23,0.72,0.59,0.72,1.09
		c0,0.57-0.39,1.15-1.63,1.2V58.8z M5.61,65.51H2.78c-0.48,0-0.79,0.09-1.01,0.28c-0.23,0.19-0.33,0.51-0.33,0.89
		c0,0.26,0.07,0.52,0.18,0.76c0.12,0.24,0.28,0.48,0.46,0.72v0.03l-0.55-0.01v0.69h4.08v-0.69H2.63c-0.2-0.19-0.4-0.46-0.51-0.67
		c-0.1-0.2-0.16-0.41-0.16-0.6c0-0.28,0.1-0.44,0.23-0.55c0.18-0.14,0.47-0.16,0.79-0.16h2.64V65.51z M5.26,71.54
		c0,0.7-0.52,1.17-1.69,1.17c-1.24,0-1.7-0.55-1.7-1.17c0-0.61,0.46-1.16,1.7-1.16C4.69,70.37,5.26,70.83,5.26,71.54L5.26,71.54z
		 M3.57,69.67c-1.53,0-2.14,0.78-2.14,1.87c0,1.1,0.61,1.87,2.14,1.87c1.36,0,2.13-0.6,2.13-1.87C5.7,70.29,4.91,69.67,3.57,69.67
		L3.57,69.67z M5.61,74.23H1.53v0.69h4.08V74.23z M0.68,74.23H0v0.69h0.68V74.23z M2.2,75.89c-0.23,0.1-0.4,0.26-0.53,0.48
		c-0.16,0.27-0.23,0.61-0.23,1.01c0,0.51,0.09,0.86,0.26,1.14c0.17,0.28,0.45,0.45,0.8,0.45c0.25,0,0.48-0.09,0.66-0.27
		c0.21-0.2,0.33-0.47,0.48-1.05c0.14-0.57,0.23-0.83,0.4-1c0.13-0.14,0.31-0.21,0.48-0.21c0.25,0,0.44,0.08,0.56,0.22
		c0.16,0.19,0.23,0.46,0.23,0.73c0,0.5-0.2,0.86-0.49,1.01l0.08,0.65c0.27-0.15,0.48-0.36,0.6-0.63c0.13-0.29,0.19-0.64,0.19-1.04
		c0-0.53-0.14-0.94-0.37-1.22c-0.24-0.29-0.52-0.42-0.9-0.42c-0.31,0-0.55,0.11-0.72,0.27c-0.22,0.21-0.35,0.51-0.51,1.11
		c-0.16,0.62-0.23,0.78-0.37,0.96c-0.11,0.14-0.26,0.22-0.42,0.22c-0.2,0-0.35-0.09-0.45-0.22c-0.11-0.17-0.15-0.43-0.15-0.68
		c0-0.49,0.22-0.78,0.46-0.9L2.2,75.89z M1.95,80.86l-0.42-0.01v0.69h4.08v-0.69H2.6c-0.19-0.14-0.35-0.28-0.46-0.43
		c-0.12-0.17-0.17-0.31-0.17-0.44c0-0.11,0.02-0.19,0.06-0.27c0.03-0.06,0.07-0.12,0.12-0.17l-0.55-0.08
		c-0.05,0.07-0.08,0.12-0.11,0.2c-0.03,0.09-0.05,0.19-0.05,0.3c0,0.19,0.06,0.34,0.15,0.49c0.1,0.15,0.23,0.28,0.37,0.4V80.86z
		 M3.31,85.26c-1.05-0.05-1.48-0.57-1.48-1.19c0-0.59,0.56-1.05,1.48-1.12V85.26z M3.68,82.24c-0.72,0-1.32,0.18-1.72,0.55
		c-0.35,0.34-0.52,0.77-0.52,1.28c0,0.58,0.18,1.03,0.49,1.35c0.36,0.36,0.92,0.55,1.61,0.55c0.78,0,1.32-0.18,1.66-0.52
		c0.36-0.35,0.5-0.84,0.5-1.39c0-0.56-0.15-0.95-0.35-1.24c-0.21-0.28-0.47-0.47-0.7-0.57l-0.07,0.72c0.48,0.23,0.72,0.58,0.72,1.09
		c0,0.57-0.39,1.15-1.63,1.2V82.24z M2.49,89.43c-0.21-0.15-0.36-0.33-0.45-0.5c-0.1-0.2-0.13-0.38-0.13-0.55
		c0-0.34,0.15-0.61,0.4-0.79c0.28-0.18,0.7-0.28,1.26-0.28c0.66,0,1.05,0.12,1.27,0.28c0.26,0.2,0.38,0.48,0.38,0.78
		c0,0.22-0.06,0.41-0.15,0.57c-0.1,0.16-0.23,0.33-0.44,0.48H2.49z M7.51,90.11v-0.69H5.24v-0.02c0.14-0.16,0.26-0.35,0.34-0.52
		c0.1-0.25,0.12-0.46,0.12-0.64c0-0.53-0.19-0.93-0.52-1.2C4.84,86.76,4.3,86.6,3.56,86.6c-0.76,0-1.27,0.18-1.61,0.45
		c-0.37,0.31-0.52,0.71-0.52,1.18c0,0.27,0.06,0.49,0.14,0.68c0.1,0.22,0.24,0.37,0.36,0.5v0.02l-0.41-0.01v0.69H7.51z M2.2,91.08
		c-0.23,0.1-0.4,0.26-0.53,0.48c-0.16,0.28-0.23,0.61-0.23,1.01c0,0.51,0.09,0.86,0.26,1.14c0.17,0.28,0.45,0.45,0.8,0.45
		c0.25,0,0.48-0.09,0.66-0.27c0.21-0.21,0.33-0.48,0.48-1.05c0.14-0.57,0.23-0.83,0.4-1c0.13-0.14,0.31-0.21,0.48-0.21
		c0.25,0,0.44,0.08,0.56,0.22c0.16,0.19,0.23,0.46,0.23,0.73c0,0.5-0.2,0.86-0.49,1.01l0.08,0.65c0.27-0.16,0.48-0.36,0.6-0.63
		c0.13-0.29,0.19-0.64,0.19-1.04c0-0.53-0.14-0.94-0.37-1.22c-0.24-0.29-0.52-0.42-0.9-0.42c-0.31,0-0.55,0.11-0.72,0.27
		c-0.22,0.21-0.35,0.51-0.51,1.11c-0.16,0.62-0.23,0.79-0.37,0.96c-0.11,0.14-0.26,0.22-0.42,0.22c-0.2,0-0.35-0.09-0.45-0.22
		c-0.11-0.17-0.15-0.43-0.15-0.68c0-0.49,0.22-0.78,0.46-0.89L2.2,91.08z M5.61,95.06H1.53v0.69h4.08V95.06z M0.68,95.06H0v0.69
		h0.68V95.06z M5.23,98.54c0,0.67-0.61,1.07-1.65,1.07c-1.05,0-1.67-0.39-1.67-1.07c0-0.41,0.25-0.76,0.59-1.05H4.6
		C4.88,97.68,5.23,98,5.23,98.54L5.23,98.54z M5.2,97.47l0.4,0.01v-0.69H0.03v0.69h1.89v0.01c-0.28,0.31-0.48,0.7-0.48,1.18
		c0,0.92,0.71,1.63,2.14,1.63c1.28,0,2.13-0.54,2.13-1.65c0-0.62-0.32-0.96-0.5-1.16V97.47z"/>
	<line class="st0" x1="27.39" y1="127.72" x2="27.39" y2="6.23"/>
	<line class="st0" x1="27.39" y1="127.72" x2="22.7" y2="127.72"/>
	<line class="st0" x1="27.39" y1="103.43" x2="22.7" y2="103.43"/>
	<line class="st0" x1="27.39" y1="79.13" x2="22.7" y2="79.13"/>
	<line class="st0" x1="27.39" y1="54.83" x2="22.7" y2="54.83"/>
	<line class="st0" x1="27.39" y1="30.53" x2="22.7" y2="30.53"/>
	<line class="st0" x1="27.39" y1="6.23" x2="22.7" y2="6.23"/>
	<path d="M14.62,121.68l0.5-0.24l-0.59-1.28h4.69v-0.69h-5.45v0.43L14.62,121.68 M14.21,124.47c0-0.65,0.72-1.19,2.32-1.19
		c1.73,0,2.31,0.5,2.31,1.19c0,0.68-0.56,1.18-2.31,1.18C14.92,125.66,14.21,125.12,14.21,124.47L14.21,124.47z M16.52,126.36
		c2.01,0,2.8-0.71,2.8-1.89c0-1.23-0.85-1.89-2.8-1.89c-1.93,0-2.8,0.68-2.8,1.89C13.72,125.67,14.58,126.36,16.52,126.36
		L16.52,126.36z M14.21,128.82c0-0.65,0.72-1.19,2.32-1.19c1.73,0,2.31,0.5,2.31,1.19c0,0.68-0.56,1.19-2.31,1.19
		C14.92,130,14.21,129.46,14.21,128.82L14.21,128.82z M16.52,130.7c2.01,0,2.8-0.71,2.8-1.89c0-1.22-0.85-1.89-2.8-1.89
		c-1.93,0-2.8,0.68-2.8,1.89C13.72,130.02,14.58,130.7,16.52,130.7L16.52,130.7z M18.38,132.39h0.84v-0.65h-0.84V132.39z
		 M14.21,135.33c0-0.65,0.72-1.19,2.32-1.19c1.73,0,2.31,0.5,2.31,1.19c0,0.68-0.56,1.19-2.31,1.19
		C14.92,136.52,14.21,135.98,14.21,135.33L14.21,135.33z M16.52,137.22c2.01,0,2.8-0.71,2.8-1.89c0-1.23-0.85-1.89-2.8-1.89
		c-1.93,0-2.8,0.68-2.8,1.89C13.72,136.53,14.58,137.22,16.52,137.22L16.52,137.22z"/>
	<path d="M14.62,99.55l0.5-0.24l-0.59-1.28h4.69v-0.69h-5.45v0.43L14.62,99.55 M14.21,102.34c0-0.65,0.72-1.19,2.32-1.19
		c1.73,0,2.31,0.5,2.31,1.19c0,0.68-0.56,1.19-2.31,1.19C14.92,103.53,14.21,102.99,14.21,102.34L14.21,102.34z M16.52,104.23
		c2.01,0,2.8-0.71,2.8-1.89c0-1.22-0.85-1.89-2.8-1.89c-1.93,0-2.8,0.68-2.8,1.89C13.72,103.55,14.58,104.23,16.52,104.23
		L16.52,104.23z M18.38,105.92h0.84v-0.65h-0.84V105.92z M14.21,108.86c0-0.65,0.72-1.19,2.32-1.19c1.73,0,2.31,0.5,2.31,1.19
		c0,0.68-0.56,1.18-2.31,1.18C14.92,110.04,14.21,109.51,14.21,108.86L14.21,108.86z M16.52,110.75c2.01,0,2.8-0.71,2.8-1.89
		c0-1.23-0.85-1.89-2.8-1.89c-1.93,0-2.8,0.68-2.8,1.89C13.72,110.06,14.58,110.75,16.52,110.75L16.52,110.75z"/>
	<path d="M14.62,77.42l0.5-0.24l-0.59-1.28h4.69v-0.69h-5.45v0.43L14.62,77.42 M18.38,79.45h0.84v-0.65h-0.84V79.45z M14.21,82.39
		c0-0.65,0.72-1.19,2.32-1.19c1.73,0,2.31,0.5,2.31,1.19c0,0.68-0.56,1.19-2.31,1.19c-1.6,0-2.32-0.54-2.32-1.18V82.39z
		 M16.52,84.28c2.01,0,2.8-0.71,2.8-1.89c0-1.22-0.85-1.89-2.8-1.89c-1.93,0-2.8,0.68-2.8,1.89C13.72,83.59,14.58,84.28,16.52,84.28
		L16.52,84.28z"/>
	<polyline points="14.62,56.38 15.12,56.13 14.54,54.85 19.22,54.85 19.22,54.17 13.77,54.17 13.77,54.6 14.62,56.38 	"/>
	<path d="M14.21,28.36c0-0.65,0.72-1.19,2.32-1.19c1.73,0,2.31,0.5,2.31,1.19c0,0.68-0.57,1.18-2.31,1.18
		C14.92,29.54,14.21,29.01,14.21,28.36L14.21,28.36 M16.52,30.25c2.01,0,2.8-0.71,2.8-1.89c0-1.23-0.85-1.89-2.8-1.89
		c-1.93,0-2.8,0.68-2.8,1.89C13.72,29.56,14.58,30.25,16.52,30.25L16.52,30.25z M14.62,34.25l0.5-0.24l-0.59-1.28h4.69v-0.69h-5.45
		v0.43L14.62,34.25z"/>
	<path d="M14.21,1.89c0-0.65,0.72-1.19,2.32-1.19c1.73,0,2.31,0.5,2.31,1.19c0,0.68-0.57,1.18-2.31,1.18
		C14.92,3.07,14.21,2.54,14.21,1.89L14.21,1.89 M16.52,3.78c2.01,0,2.8-0.71,2.8-1.89c0-1.23-0.85-1.89-2.8-1.89
		c-1.93,0-2.8,0.68-2.8,1.89C13.72,3.09,14.58,3.78,16.52,3.78L16.52,3.78z M14.21,6.23c0-0.65,0.72-1.19,2.32-1.19
		c1.73,0,2.31,0.5,2.31,1.19c0,0.68-0.57,1.18-2.31,1.18C14.92,7.42,14.21,6.88,14.21,6.23L14.21,6.23z M16.52,8.12
		c2.01,0,2.8-0.71,2.8-1.89c0-1.23-0.85-1.89-2.8-1.89c-1.93,0-2.8,0.68-2.8,1.89C13.72,7.43,14.58,8.12,16.52,8.12L16.52,8.12z
		 M14.62,12.12l0.5-0.24l-0.59-1.28h4.69V9.91h-5.45v0.43L14.62,12.12z"/>
</g>
<g>
	<g>
		<path class="st1" d="M157.67,98.27l-2.52-0.01l-7.56-0.02h0l-5.04-0.03h0l-2.52-0.02l-2.52-0.02h0l-2.53-0.03l-2.52-0.03h0
			l-2.53-0.05h0l-2.52-0.05h0l-2.52-0.07h0l-2.53-0.08l0,0l-2.52-0.1c-26.64-0.98-37.72-7.32-57.68-24.7l-2.52-2.23l0,0l-2.52-2.27
			l0,0l-2.53-2.3l0,0l-2.52-2.32l0,0L49.6,61.6l-2.52-2.36l0,0l-2.52-2.38l-2.52-2.39l-2.52-2.4l0,0L37,49.68l-5.04-4.82l-4.73-4.53
			c0.1,0.43,0.1,0.91,0.02,1.37l4.03,3.86l2.53,2.42c9.14,8.71,18.27,17.48,27.74,25.82l2.53,2.19l0,0
			c7.71,6.57,15.95,13.04,25.32,17.04l0.02,0.01l2.52,1.01l0.02,0.01c19.42,6.69,40.49,4.53,60.67,5.17l2.52,0.01l2.52,0.01
			c0.27,0,0.49-0.22,0.49-0.49C158.16,98.49,157.94,98.27,157.67,98.27"/>
	</g>
</g>
<g>
	<line class="st2" x1="32.25" y1="31.6" x2="32.25" y2="43.96"/>
	<polyline class="st2" points="30.49,40.92 32.25,43.96 34.01,40.92 	"/>
	<line class="st2" x1="43.76" y1="56.72" x2="43.76" y2="56.77"/>
	<line class="st2" x1="50.04" y1="59.41" x2="50.04" y2="61.75"/>
	<polyline class="st2" points="48.28,58.71 50.04,61.75 51.8,58.71 	"/>
	<line class="st2" x1="52.17" y1="63.18" x2="52.17" y2="64.4"/>
	<polyline class="st2" points="50.42,61.36 52.17,64.4 53.93,61.36 	"/>
	<line class="st2" x1="59.13" y1="60.24" x2="59.13" y2="67.25"/>
	<polyline class="st2" points="57.37,64.2 59.13,67.25 60.88,64.2 	"/>
	<line class="st2" x1="67.29" y1="72.37" x2="67.29" y2="76.43"/>
	<polyline class="st2" points="65.53,73.38 67.29,76.43 69.05,73.38 	"/>
	<line class="st2" x1="77.99" y1="80.8" x2="77.99" y2="84.51"/>
	<polyline class="st2" points="76.24,81.47 77.99,84.51 79.75,81.47 	"/>
	<line class="st2" x1="82.07" y1="76.5" x2="82.07" y2="83.95"/>
	<polyline class="st2" points="80.32,80.9 82.07,83.95 83.83,80.9 	"/>
	<line class="st2" x1="85.85" y1="90.64" x2="85.85" y2="90.77"/>
	<polyline class="st2" points="84.09,87.73 85.85,90.77 87.61,87.73 	"/>
	<line class="st2" x1="95.39" y1="80.12" x2="95.39" y2="88.32"/>
	<polyline class="st2" points="93.63,85.28 95.39,88.32 97.15,85.28 	"/>
	<line class="st2" x1="98.7" y1="83.19" x2="98.7" y2="90.49"/>
	<polyline class="st2" points="96.95,87.45 98.7,90.49 100.46,87.45 	"/>
	<line class="st2" x1="110.13" y1="93.96" x2="110.13" y2="96.32"/>
	<polyline class="st2" points="108.38,93.28 110.13,96.32 111.89,93.28 	"/>
	<line class="st2" x1="112.74" y1="83.52" x2="112.74" y2="91.28"/>
	<polyline class="st2" points="110.98,88.23 112.74,91.28 114.5,88.23 	"/>
	<line class="st2" x1="123.22" y1="93.35" x2="123.22" y2="96.39"/>
	<polyline class="st2" points="121.47,93.34 123.22,96.39 124.98,93.34 	"/>
	<line class="st2" x1="125.53" y1="94.83" x2="125.53" y2="97.05"/>
	<polyline class="st2" points="123.77,94.01 125.53,97.05 127.28,94.01 	"/>
	<line class="st2" x1="135.44" y1="85.9" x2="135.44" y2="91.91"/>
	<polyline class="st2" points="133.68,88.87 135.44,91.91 137.2,88.87 	"/>
	<line class="st2" x1="141.31" y1="91.4" x2="141.31" y2="95.74"/>
	<polyline class="st2" points="139.55,92.69 141.31,95.74 143.07,92.69 	"/>
	<line class="st2" x1="151.03" y1="90.06" x2="151.03" y2="94.81"/>
	<polyline class="st2" points="149.27,91.76 151.03,94.81 152.78,91.76 	"/>
	<line class="st2" x1="153.74" y1="92.47" x2="153.74" y2="94.63"/>
	<polyline class="st2" points="151.98,91.59 153.74,94.63 155.5,91.59 	"/>
	<line class="st2" x1="34.57" y1="56.34" x2="34.57" y2="49.24"/>
	<polyline class="st2" points="36.33,52.28 34.57,49.24 32.81,52.28 	"/>
	<line class="st2" x1="42.23" y1="71.51" x2="42.23" y2="57.65"/>
	<polyline class="st2" points="43.99,60.7 42.23,57.65 40.47,60.7 	"/>
	<line class="st2" x1="48.8" y1="69.3" x2="48.8" y2="62.44"/>
	<polyline class="st2" points="50.55,65.49 48.8,62.44 47.04,65.49 	"/>
	<line class="st2" x1="52.33" y1="67.41" x2="52.33" y2="65.41"/>
	<polyline class="st2" points="54.09,68.46 52.33,65.42 50.57,68.46 	"/>
	<line class="st2" x1="62.21" y1="79.53" x2="62.21" y2="74.73"/>
	<polyline class="st2" points="63.97,77.78 62.21,74.74 60.45,77.78 	"/>
	<line class="st2" x1="71.1" y1="94.7" x2="71.1" y2="83.18"/>
	<polyline class="st2" points="72.86,86.22 71.1,83.18 69.34,86.22 	"/>
	<line class="st2" x1="71.77" y1="88.88" x2="71.77" y2="83.07"/>
	<polyline class="st2" points="73.52,86.12 71.77,83.07 70.01,86.12 	"/>
	<line class="st2" x1="84.33" y1="100.12" x2="84.33" y2="91.98"/>
	<polyline class="st2" points="86.09,95.02 84.33,91.98 82.57,95.02 	"/>
	<line class="st2" x1="91.24" y1="108.67" x2="91.24" y2="96.16"/>
	<polyline class="st2" points="93,99.21 91.24,96.16 89.49,99.21 	"/>
	<line class="st2" x1="93.5" y1="127.16" x2="93.5" y2="97.85"/>
	<polyline class="st2" points="95.26,100.89 93.5,97.85 91.75,100.89 	"/>
	<line class="st2" x1="99.84" y1="110.59" x2="99.84" y2="99.08"/>
	<polyline class="st2" points="101.6,102.12 99.84,99.08 98.08,102.12 	"/>
	<line class="st2" x1="110.63" y1="116.15" x2="110.63" y2="101.54"/>
	<polyline class="st2" points="112.39,104.58 110.63,101.54 108.88,104.58 	"/>
	<line class="st2" x1="111.62" y1="104.01" x2="111.62" y2="99.62"/>
	<polyline class="st2" points="113.38,102.67 111.62,99.62 109.87,102.67 	"/>
	<line class="st2" x1="118.78" y1="104.53" x2="118.78" y2="100.09"/>
	<polyline class="st2" points="120.53,103.13 118.78,100.09 117.02,103.13 	"/>
	<line class="st2" x1="125.4" y1="104.46" x2="125.4" y2="100.2"/>
	<polyline class="st2" points="127.16,103.24 125.4,100.2 123.64,103.24 	"/>
	<line class="st2" x1="135.99" y1="103.85" x2="135.99" y2="99.53"/>
	<polyline class="st2" points="137.75,102.58 135.99,99.53 134.23,102.58 	"/>
	<line class="st2" x1="138.73" y1="104.91" x2="138.73" y2="100.55"/>
	<polyline class="st2" points="140.49,103.59 138.73,100.55 136.97,103.59 	"/>
	<line class="st2" x1="149.93" y1="101.98" x2="149.93" y2="99.27"/>
	<polyline class="st2" points="151.69,102.32 149.93,99.27 148.17,102.32 	"/>
	<line class="st2" x1="152.01" y1="111.81" x2="152.01" y2="101.91"/>
	<polyline class="st2" points="153.77,104.95 152.01,101.91 150.25,104.95 	"/>
	<path class="st3" d="M117.53,65.07v14.1 M113.14,68.16v13.26 M97.07,64.62v13.57 M83.65,57.57v14.07 M65.56,51.29v15.24"/>
	<path class="st4" d="M69.13,51.36h-0.49c0-1.71-1.39-3.09-3.09-3.09c-1.7,0-3.09,1.39-3.09,3.09c0,1.7,1.39,3.09,3.09,3.09
		c1.71,0,3.09-1.39,3.09-3.09h0.98c0,2.25-1.82,4.07-4.07,4.07c-2.25,0-4.07-1.82-4.07-4.07c0-2.25,1.82-4.07,4.07-4.07
		c2.25,0,4.07,1.82,4.07,4.07H69.13"/>
	<path class="st4" d="M87.23,57.64h-0.49c0-1.71-1.39-3.09-3.09-3.09c-1.71,0-3.09,1.39-3.09,3.09c0,1.7,1.39,3.09,3.09,3.09
		c1.7,0,3.09-1.39,3.09-3.09h0.98c0,2.25-1.82,4.07-4.07,4.07c-2.25,0-4.07-1.82-4.07-4.07c0-2.25,1.82-4.07,4.07-4.07
		c2.24,0,4.07,1.82,4.07,4.07H87.23"/>
	<path class="st4" d="M100.64,64.68h-0.49c0-1.71-1.39-3.09-3.09-3.09c-1.7,0-3.09,1.39-3.09,3.09c0,1.71,1.39,3.09,3.09,3.09
		c1.71,0,3.09-1.39,3.09-3.09h0.98c0,2.25-1.82,4.07-4.07,4.07c-2.25,0-4.07-1.82-4.07-4.07c0-2.25,1.82-4.07,4.07-4.07
		c2.25,0,4.07,1.82,4.07,4.07H100.64"/>
	<path class="st4" d="M116.71,68.23h-0.49c0-1.71-1.39-3.09-3.09-3.09c-1.71,0-3.09,1.39-3.09,3.09c0,1.71,1.39,3.09,3.09,3.09
		c1.71,0,3.09-1.39,3.09-3.09h0.98c0,2.25-1.82,4.07-4.07,4.07c-2.25,0-4.07-1.82-4.07-4.07c0-2.25,1.82-4.07,4.07-4.07
		s4.07,1.82,4.07,4.07H116.71"/>
	<path class="st4" d="M121.1,65.13h-0.49c0-1.71-1.39-3.09-3.09-3.09c-1.71,0-3.09,1.39-3.09,3.09c0,1.71,1.39,3.09,3.09,3.09
		c1.71,0,3.09-1.39,3.09-3.09h0.98c0,2.25-1.82,4.07-4.07,4.07c-2.25,0-4.07-1.82-4.07-4.07c0-2.25,1.82-4.07,4.07-4.07
		c2.25,0,4.07,1.82,4.07,4.07H121.1"/>
	<rect x="103.58" y="1.37" class="st5" width="55.02" height="37.49"/>
</g>
<g>
	<g>
		<rect x="103.58" y="1.37" class="st0" width="55.02" height="37.49"/>
	</g>
</g>
<g>
	<path d="M111.81,10.77c0-0.66-0.54-1.2-1.2-1.2c-0.66,0-1.2,0.54-1.2,1.2s0.54,1.2,1.2,1.2C111.27,11.96,111.81,11.42,111.81,10.77
		"/>
	<path d="M111.81,10.77h-0.24c0-0.52-0.43-0.95-0.95-0.95c-0.52,0-0.95,0.43-0.95,0.95s0.43,0.95,0.95,0.95
		c0.52,0,0.95-0.43,0.95-0.95h0.49c0,0.79-0.65,1.44-1.44,1.44c-0.79,0-1.44-0.64-1.44-1.44c0-0.79,0.64-1.44,1.44-1.44
		c0.79,0,1.44,0.65,1.44,1.44H111.81"/>
	<path class="st1" d="M111.81,20.14c0-0.66-0.54-1.2-1.2-1.2c-0.66,0-1.2,0.53-1.2,1.2c0,0.66,0.54,1.2,1.2,1.2
		C111.27,21.33,111.81,20.8,111.81,20.14"/>
	<path class="st1" d="M111.81,20.14h-0.24c0-0.52-0.43-0.95-0.95-0.95c-0.52,0-0.95,0.43-0.95,0.95c0,0.52,0.43,0.95,0.95,0.95
		c0.52,0,0.95-0.43,0.95-0.95h0.49c0,0.79-0.65,1.44-1.44,1.44c-0.79,0-1.44-0.65-1.44-1.44c0-0.79,0.64-1.44,1.44-1.44
		c0.79,0,1.44,0.65,1.44,1.44H111.81"/>
	<path class="st4" d="M111.81,29.51c0-0.66-0.54-1.19-1.2-1.19c-0.66,0-1.2,0.54-1.2,1.19s0.54,1.2,1.2,1.2
		C111.27,30.71,111.81,30.17,111.81,29.51"/>
	<path class="st4" d="M111.81,29.51h-0.24c0-0.52-0.43-0.95-0.95-0.95c-0.52,0-0.95,0.43-0.95,0.95c0,0.52,0.43,0.95,0.95,0.95
		c0.52,0,0.95-0.43,0.95-0.95h0.49c0,0.79-0.65,1.44-1.44,1.44c-0.79,0-1.44-0.65-1.44-1.44c0-0.79,0.64-1.44,1.44-1.44
		c0.79,0,1.44,0.65,1.44,1.44H111.81"/>
	<path d="M130.04,10.44V8.5h3.02V8.01h-3.75v5.53h3.84v-0.48h-3.11v-2.14h2.33v-0.48H130.04 M128.26,13.06h-2.69V8.01h-0.73v5.53
		h3.42V13.06z M120.89,12.78c-0.27-0.91-0.78-2.4-1.59-4.77h-1.11v5.53h0.67c0-2.44,0-4.09-0.03-4.97h0.03
		c0.29,0.88,0.85,2.53,1.7,4.97h0.7c0.87-2.49,1.42-4.09,1.7-4.97h0.03c-0.02,0.89-0.03,2.53-0.03,4.97h0.67V8.01h-1.11
		c-0.81,2.35-1.32,3.85-1.59,4.77H120.89z"/>
	<path d="M154.6,22.92v-2.83c0-0.48-0.1-0.79-0.28-1.01c-0.19-0.23-0.51-0.33-0.89-0.33c-0.26,0-0.52,0.07-0.76,0.18
		c-0.24,0.12-0.48,0.28-0.71,0.46h-0.03l0.01-0.55h-0.69v4.08h0.69v-2.98c0.19-0.2,0.46-0.41,0.67-0.51c0.2-0.1,0.4-0.16,0.6-0.16
		c0.28,0,0.44,0.1,0.55,0.23c0.14,0.18,0.16,0.47,0.16,0.79v2.64H154.6 M149.43,22.12c-0.35,0.37-0.83,0.47-1.12,0.47
		c-0.66,0-0.88-0.33-0.88-0.76c0-0.64,0.59-1.02,1.99-1.2V22.12z M150.28,22.92v-0.04c-0.14-0.13-0.16-0.26-0.16-0.62v-1.98
		c0-1.17-0.52-1.53-1.55-1.53c-1.08,0-1.5,0.54-1.64,1.09l0.71,0.07c0.07-0.39,0.34-0.77,0.91-0.77c0.65,0,0.88,0.35,0.88,0.99v0.15
		c-1.99,0.23-2.69,0.72-2.69,1.59c0,0.69,0.42,1.14,1.46,1.14c0.46,0,0.97-0.17,1.25-0.46h0.01c0.01,0.14,0.04,0.26,0.12,0.36
		H150.28z M143.08,20.63c0.05-1.05,0.57-1.48,1.19-1.48c0.59,0,1.05,0.56,1.12,1.48H143.08z M146.1,20.99
		c0-0.72-0.18-1.32-0.55-1.72c-0.34-0.35-0.77-0.52-1.28-0.52c-0.58,0-1.03,0.17-1.35,0.49c-0.36,0.36-0.55,0.92-0.55,1.61
		c0,0.78,0.18,1.32,0.52,1.66c0.35,0.36,0.84,0.5,1.39,0.5c0.56,0,0.95-0.15,1.24-0.35c0.28-0.21,0.46-0.47,0.57-0.7l-0.72-0.07
		c-0.23,0.48-0.58,0.72-1.09,0.72c-0.58,0-1.15-0.39-1.2-1.63H146.1z M141.57,22.92v-2.88c0-0.46-0.09-0.77-0.27-0.99
		c-0.18-0.2-0.44-0.31-0.79-0.31c-0.26,0-0.48,0.06-0.71,0.17c-0.22,0.11-0.44,0.28-0.68,0.49h-0.02c-0.05-0.15-0.15-0.34-0.29-0.45
		c-0.16-0.13-0.38-0.21-0.68-0.21c-0.22,0-0.46,0.06-0.67,0.16c-0.21,0.1-0.43,0.26-0.68,0.48h-0.02l0.01-0.55h-0.69v4.08h0.69
		v-2.98c0.2-0.22,0.4-0.39,0.58-0.5c0.2-0.12,0.38-0.18,0.54-0.18c0.18,0,0.33,0.07,0.43,0.18c0.12,0.16,0.17,0.41,0.17,0.74v2.73
		h0.69v-2.99c0.21-0.23,0.4-0.39,0.58-0.49c0.19-0.11,0.37-0.17,0.53-0.17c0.22,0,0.36,0.08,0.46,0.2c0.12,0.18,0.15,0.47,0.15,0.76
		v2.7H141.57z M131.87,19.26l0.01-0.42h-0.69v4.08h0.69v-3.01c0.14-0.19,0.29-0.35,0.43-0.46c0.17-0.12,0.31-0.17,0.44-0.17
		c0.1,0,0.19,0.02,0.27,0.05c0.07,0.03,0.12,0.07,0.17,0.12l0.08-0.55c-0.07-0.05-0.13-0.08-0.2-0.11c-0.09-0.03-0.19-0.05-0.3-0.05
		c-0.19,0-0.34,0.06-0.49,0.15c-0.15,0.1-0.28,0.23-0.4,0.37H131.87z M128.61,22.58c-0.7,0-1.17-0.52-1.17-1.7
		c0-1.23,0.55-1.7,1.17-1.7c0.61,0,1.17,0.46,1.17,1.7C129.77,22,129.31,22.58,128.61,22.58L128.61,22.58z M130.48,20.88
		c0-1.53-0.77-2.14-1.87-2.14c-1.1,0-1.87,0.61-1.87,2.14c0,1.36,0.6,2.13,1.87,2.13C129.86,23.01,130.48,22.22,130.48,20.88
		L130.48,20.88z M125.91,18.84h-0.69v4.08h0.69V18.84z M125.23,17.99h0.69v-0.68h-0.69V17.99z M123.07,19.26l0.01-0.42h-0.69v4.08
		h0.69v-3.01c0.14-0.19,0.28-0.35,0.43-0.46c0.17-0.12,0.31-0.17,0.44-0.17c0.1,0,0.19,0.02,0.27,0.05
		c0.06,0.03,0.12,0.07,0.17,0.12l0.08-0.55c-0.07-0.05-0.13-0.08-0.2-0.11c-0.09-0.03-0.19-0.05-0.29-0.05
		c-0.19,0-0.35,0.06-0.49,0.15c-0.15,0.1-0.28,0.23-0.4,0.37H123.07z M118.85,19.81c0.15-0.21,0.33-0.36,0.5-0.46
		c0.2-0.1,0.38-0.13,0.55-0.13c0.34,0,0.61,0.15,0.79,0.4c0.18,0.28,0.28,0.7,0.28,1.26c0,0.66-0.12,1.05-0.28,1.28
		c-0.21,0.26-0.49,0.38-0.78,0.38c-0.22,0-0.41-0.06-0.57-0.15c-0.17-0.09-0.33-0.23-0.49-0.43V19.81z M118.16,24.83h0.69v-2.27
		h0.01c0.16,0.15,0.35,0.27,0.52,0.34c0.25,0.1,0.46,0.12,0.64,0.12c0.53,0,0.93-0.19,1.2-0.52c0.28-0.34,0.45-0.88,0.45-1.62
		c0-0.76-0.18-1.27-0.45-1.61c-0.31-0.37-0.71-0.52-1.18-0.52c-0.27,0-0.49,0.06-0.68,0.14c-0.22,0.1-0.37,0.24-0.5,0.36h-0.02
		l0.01-0.41h-0.69V24.83z"/>
	<path d="M130.8,29.62v-2.38h1.07c1.14,0,1.63,0.42,1.63,1.16c0,0.83-0.51,1.21-1.74,1.21H130.8 M130.8,32.29v-2.18h0.99
		c1.65,0,2.45-0.5,2.45-1.7c0-1.01-0.63-1.65-2.34-1.65h-1.83v5.54H130.8z M127.69,30.13h-1.88l0.47-1.46
		c0.15-0.46,0.3-0.94,0.44-1.46h0.04c0.15,0.53,0.3,0.99,0.46,1.46L127.69,30.13z M127.86,30.62l0.55,1.68h0.8l-1.99-5.54h-0.95
		l-1.99,5.54h0.79l0.55-1.68H127.86z M120.89,31.53c-0.27-0.91-0.78-2.4-1.59-4.77h-1.11v5.54h0.67c0-2.44,0-4.09-0.03-4.97h0.03
		c0.29,0.88,0.85,2.53,1.7,4.97h0.7c0.87-2.49,1.42-4.1,1.7-4.97h0.03c-0.02,0.88-0.03,2.53-0.03,4.97h0.67v-5.54h-1.11
		c-0.81,2.35-1.32,3.85-1.59,4.77H120.89z"/>
</g>
</svg>
