<?xml version="1.0" encoding="UTF-8" standalone="no"?>
<!-- Created with Inkscape (http://www.inkscape.org/) -->

<svg
   xmlns:dc="http://purl.org/dc/elements/1.1/"
   xmlns:cc="http://creativecommons.org/ns#"
   xmlns:rdf="http://www.w3.org/1999/02/22-rdf-syntax-ns#"
   xmlns:svg="http://www.w3.org/2000/svg"
   xmlns="http://www.w3.org/2000/svg"
   xmlns:sodipodi="http://sodipodi.sourceforge.net/DTD/sodipodi-0.dtd"
   xmlns:inkscape="http://www.inkscape.org/namespaces/inkscape"
   id="svg2"
   version="1.1"
   inkscape:version="0.91 r"
   xml:space="preserve"
   width="551.72498"
   height="127"
   viewBox="0 0 551.72498 127"
   sodipodi:docname="se-logo.svg"><metadata
     id="metadata8"><rdf:RDF><cc:Work
         rdf:about=""><dc:format>image/svg+xml</dc:format><dc:type
           rdf:resource="http://purl.org/dc/dcmitype/StillImage" /><dc:title></dc:title></cc:Work></rdf:RDF></metadata><defs
     id="defs6" /><sodipodi:namedview
     pagecolor="#ffffff"
     bordercolor="#666666"
     borderopacity="1"
     objecttolerance="10"
     gridtolerance="10"
     guidetolerance="10"
     inkscape:pageopacity="0"
     inkscape:pageshadow="2"
     inkscape:window-width="1366"
     inkscape:window-height="718"
     id="namedview4"
     showgrid="false"
     inkscape:zoom="1.8506724"
     inkscape:cx="200.00974"
     inkscape:cy="62.499126"
     inkscape:window-x="0"
     inkscape:window-y="0"
     inkscape:window-maximized="1"
     inkscape:current-layer="g10" /><g
     id="g10"
     inkscape:groupmode="layer"
     inkscape:label="ink_ext_XXXXXX"
     transform="matrix(1.25,0,0,-1.25,0,127)"><g
       id="g12"
       transform="scale(0.1,0.1)"><path
         d="M 147.504,111.797 C 84.8711,111.797 39.8047,126.434 0,166.816 l 42.1445,41.563 c 30.4375,-30.441 63.8005,-39.805 106.5275,-39.805 54.437,0 86.047,23.418 86.047,63.809 0,18.144 -5.27,33.359 -16.391,43.308 -10.535,9.954 -21.07,14.043 -45.656,17.559 l -49.164,7.023 C 89.5547,304.961 62.6328,316.66 44.4883,333.641 24,352.957 14.0469,379.297 14.0469,413.242 c 0,72.578 52.6797,122.332 139.3121,122.332 55.02,0 93.653,-14.051 129.356,-47.41 l -40.391,-39.805 c -25.754,24.59 -55.605,32.196 -90.722,32.196 -49.168,0 -76.0942,-28.094 -76.0942,-64.969 0,-15.215 4.6836,-28.684 15.8047,-38.633 10.5355,-9.367 27.5115,-16.387 46.8285,-19.316 l 47.41,-7.024 c 38.629,-5.847 60.289,-15.222 77.847,-31.023 22.829,-19.902 33.95,-49.746 33.95,-85.461 0,-76.668 -62.629,-122.332 -149.844,-122.332"
         style="fill:#100f0d;fill-opacity:1;fill-rule:nonzero;stroke:none"
         id="path14"
         inkscape:connector-curvature="0" /><path
         d="m 463.563,115.313 c -55.602,0 -81.36,39.804 -81.36,82.527 l 0,163.312 -33.945,0 0,45.653 33.945,0 0,90.136 59.707,0 0,-90.136 57.36,0 0,-45.653 -57.36,0 0,-160.382 c 0,-21.661 10.531,-34.532 32.778,-34.532 l 24.582,0 0,-50.925 -35.707,0"
         style="fill:#100f0d;fill-opacity:1;fill-rule:nonzero;stroke:none"
         id="path16"
         inkscape:connector-curvature="0" /><path
         d="m 732.227,246.426 -69.653,0 c -35.125,0 -53.265,-15.801 -53.265,-42.727 0,-26.933 16.976,-42.148 54.437,-42.148 22.824,0 39.801,1.758 55.606,16.972 8.777,8.782 12.875,22.832 12.875,43.907 l 0,23.996 z m 1.171,-131.113 0,26.921 c -21.66,-21.66 -42.144,-30.437 -79.019,-30.437 -36.879,0 -61.457,8.777 -79.606,26.933 -15.218,15.801 -23.41,38.622 -23.41,63.797 0,49.746 34.532,85.461 102.43,85.461 l 78.434,0 0,21.063 c 0,37.461 -18.731,55.605 -64.969,55.605 -32.781,0 -48.586,-7.605 -64.973,-28.679 l -39.219,36.875 c 28.094,32.781 57.364,42.734 106.528,42.734 81.363,0 122.336,-34.531 122.336,-101.848 l 0,-198.425 -58.532,0"
         style="fill:#100f0d;fill-opacity:1;fill-rule:nonzero;stroke:none"
         id="path18"
         inkscape:connector-curvature="0" /><path
         d="m 1000.88,111.797 c -66.724,0 -132.282,40.976 -132.282,152.187 0,111.211 65.558,151.602 132.282,151.602 40.98,0 69.66,-11.711 97.75,-41.563 l -40.97,-39.796 c -18.73,20.48 -33.36,28.097 -56.78,28.097 -22.821,0 -42.142,-9.367 -55.017,-26.347 -12.879,-16.387 -17.562,-37.461 -17.562,-71.993 0,-34.531 4.683,-56.191 17.562,-72.578 12.875,-16.972 32.196,-26.34 55.017,-26.34 23.42,0 38.05,7.61 56.78,28.098 l 40.97,-39.219 c -28.09,-29.855 -56.77,-42.148 -97.75,-42.148"
         style="fill:#100f0d;fill-opacity:1;fill-rule:nonzero;stroke:none"
         id="path20"
         inkscape:connector-curvature="0" /><path
         d="m 1354.4,115.313 -83.12,136.96 -43.9,-49.746 0,-87.214 -59.7,0 0,416.757 59.7,0 0,-256.965 115.32,136.965 72.57,0 -103.01,-116.476 115.89,-180.281 -73.75,0"
         style="fill:#100f0d;fill-opacity:1;fill-rule:nonzero;stroke:none"
         id="path22"
         inkscape:connector-curvature="0" /><path
         d="m 1489.59,115.313 0,416.757 274.52,0 0,-72.59 -193.16,0 0,-97.742 164.48,0 0,-72.59 -164.48,0 0,-101.257 193.16,0 0,-72.578 -274.52,0"
         style="fill:#2d4d9b;fill-opacity:1;fill-rule:nonzero;stroke:none"
         id="path24"
         inkscape:connector-curvature="0" /><path
         d="m 2005.25,115.313 -56.19,91.308 -55.61,-91.308 -91.31,0 105.36,155.691 -101.26,149.258 91.31,0 51.51,-87.207 52.09,87.207 91.31,0 -101.26,-149.258 105.36,-155.691 -91.31,0"
         style="fill:#2d4d9b;fill-opacity:1;fill-rule:nonzero;stroke:none"
         id="path26"
         inkscape:connector-curvature="0" /><path
         d="m 2255.76,111.797 c -60.87,0 -136.38,32.781 -136.38,156.289 0,123.496 75.51,155.691 136.38,155.691 42.15,0 73.75,-12.879 100.68,-40.976 l -51.51,-51.504 c -15.81,16.973 -29.27,23.996 -49.17,23.996 -18.14,0 -32.19,-6.438 -43.31,-19.902 -11.71,-14.629 -16.98,-35.118 -16.98,-67.305 0,-32.199 5.27,-53.273 16.98,-67.902 11.12,-13.465 25.17,-19.903 43.31,-19.903 19.9,0 33.36,7.024 49.17,23.996 l 51.51,-50.918 c -26.93,-28.097 -58.53,-41.562 -100.68,-41.562"
         style="fill:#2d4d9b;fill-opacity:1;fill-rule:nonzero;stroke:none"
         id="path28"
         inkscape:connector-curvature="0" /><path
         d="m 2590.56,115.313 0,186.132 c 0,40.391 -25.76,53.848 -49.76,53.848 -23.99,0 -49.17,-14.043 -49.17,-53.848 l 0,-186.132 -76.09,0 0,416.757 76.09,0 0,-139.902 c 20.49,21.074 46.24,31.609 73.17,31.609 66.72,0 101.85,-46.824 101.85,-111.211 l 0,-197.253 -76.09,0"
         style="fill:#2d4d9b;fill-opacity:1;fill-rule:nonzero;stroke:none"
         id="path30"
         inkscape:connector-curvature="0" /><path
         d="m 2903.11,244.082 -60.3,0 c -27.51,0 -42.72,-12.871 -42.72,-34.531 0,-21.074 14.04,-35.117 43.89,-35.117 21.08,0 34.55,1.757 48,14.629 8.2,7.605 11.13,19.902 11.13,38.632 l 0,16.387 z m 1.75,-128.769 0,26.335 c -20.48,-20.488 -39.8,-29.265 -74.92,-29.265 -34.54,0 -59.71,8.777 -77.85,26.922 -16.39,16.984 -25.17,41.562 -25.17,68.488 0,48.582 33.36,88.387 104.19,88.387 l 72,0 0,15.215 c 0,33.371 -16.39,48 -56.78,48 -29.27,0 -42.73,-7.024 -58.54,-25.168 l -48.58,47.414 c 29.85,32.773 59.12,42.136 110.05,42.136 85.46,0 129.94,-36.289 129.94,-107.695 l 0,-200.769 -74.34,0"
         style="fill:#2d4d9b;fill-opacity:1;fill-rule:nonzero;stroke:none"
         id="path32"
         inkscape:connector-curvature="0" /><path
         d="m 3238.48,115.313 0,184.375 c 0,41.562 -26.34,55.605 -50.34,55.605 -24,0 -50.92,-14.043 -50.92,-55.605 l 0,-184.375 -76.1,0 0,304.949 74.35,0 0,-28.094 c 19.89,21.074 47.99,31.609 76.08,31.609 30.44,0 55.03,-9.949 72,-26.922 24.58,-24.582 31.02,-53.261 31.02,-86.632 l 0,-194.91 -76.09,0"
         style="fill:#2d4d9b;fill-opacity:1;fill-rule:nonzero;stroke:none"
         id="path34"
         inkscape:connector-curvature="0" /><path
         d="m 3509.47,355.293 c -45.07,0 -49.74,-38.633 -49.74,-79.016 0,-40.39 4.67,-79.609 49.74,-79.609 45.08,0 50.34,39.219 50.34,79.609 0,40.383 -5.26,79.016 -50.34,79.016 z M 3501.87,0 c -46.83,0 -79.02,9.35938 -110.63,39.8047 l 47.41,47.9961 c 16.98,-16.3867 33.95,-23.418 59.71,-23.418 45.65,0 61.45,32.1992 61.45,63.2222 l 0,31.016 c -19.9,-22.234 -42.72,-30.43 -72.57,-30.43 -29.86,0 -55.61,9.954 -72.59,26.926 -28.67,28.68 -31.02,67.891 -31.02,121.16 0,53.262 2.35,91.895 31.02,120.578 16.98,16.973 43.32,26.922 73.17,26.922 32.19,0 53.26,-8.777 74.34,-32.195 l 0,28.68 73.75,0 0,-293.828 C 3635.91,53.2695 3583.81,0 3501.87,0"
         style="fill:#2d4d9b;fill-opacity:1;fill-rule:nonzero;stroke:none"
         id="path36"
         inkscape:connector-curvature="0" /><path
         d="m 3889.92,328.953 c -8.19,18.145 -25.16,31.613 -50.92,31.613 -25.75,0 -42.73,-13.468 -50.92,-31.613 -4.68,-11.121 -6.44,-19.316 -7.03,-32.773 l 115.9,0 c -0.58,13.457 -2.34,21.652 -7.03,32.773 z m -108.87,-84.871 c 0,-39.219 24.01,-67.891 66.73,-67.891 33.36,0 49.76,9.356 69.08,28.672 l 46.24,-45.07 c -31.03,-31.016 -60.88,-47.996 -115.9,-47.996 -71.99,0 -141.07,32.781 -141.07,156.289 0,99.5 53.85,155.691 132.87,155.691 84.88,0 132.88,-62.039 132.88,-145.742 l 0,-33.953 -190.83,0"
         style="fill:#2d4d9b;fill-opacity:1;fill-rule:nonzero;stroke:none"
         id="path38"
         inkscape:connector-curvature="0" /><path
         d="m 3981.75,693 432.102,0 0,88.8711 -432.102,0 0,-88.8711 z"
         style="fill:#4068bb;fill-opacity:1;fill-rule:nonzero;stroke:none"
         id="path40"
         inkscape:connector-curvature="0" /><path
         d="m 3981.75,807.461 432.102,0 0,88.8906 -432.102,0 0,-88.8906 z"
         style="fill:#5ca3de;fill-opacity:1;fill-rule:nonzero;stroke:none"
         id="path42"
         inkscape:connector-curvature="0" /><path
         d="m 4345.28,1015.98 -295.03,0 c -37.84,0 -68.5,-31.808 -68.5,-71 l 0,-23.082 432.1,0 0,23.082 c 0,39.192 -30.7,71 -68.57,71"
         style="fill:#9adff7;fill-opacity:1;fill-rule:nonzero;stroke:none"
         id="path44"
         inkscape:connector-curvature="0" /><path
         d="m 3981.75,667.957 0,-23.078 c 0,-39.191 30.66,-71.004 68.5,-71.004 l 184.54,0 0,-93.855 90.57,93.855 19.92,0 c 37.87,0 68.57,31.813 68.57,71.004 l 0,23.078 -432.1,0"
         style="fill:#2d4e9b;fill-opacity:1;fill-rule:nonzero;stroke:none"
         id="path46"
         inkscape:connector-curvature="0" /><path
         d="m 4062.81,573.875 -12.56,0 c -37.84,0 -68.5,31.813 -68.5,71.004 l 0,23.078 171.84,0 -90.78,-94.082"
         style="fill:#455ca6;fill-opacity:1;fill-rule:nonzero;stroke:none"
         id="path48"
         inkscape:connector-curvature="0" /><path
         d="m 4288.19,807.461 -306.44,0 0,88.891 392.2,0 -85.76,-88.891"
         style="fill:#73aee2;fill-opacity:1;fill-rule:nonzero;stroke:none"
         id="path50"
         inkscape:connector-curvature="0" /><path
         d="m 4177.75,693 -196,0 0,88.871 281.76,0 L 4177.75,693"
         style="fill:#5877c4;fill-opacity:1;fill-rule:nonzero;stroke:none"
         id="path52"
         inkscape:connector-curvature="0" /></g></g></svg>